<svg width="80" height="80" viewBox="0 0 80 80" fill="none" xmlns="http://www.w3.org/2000/svg">
<circle cx="40" cy="40" r="40" fill="#FE6B01" fill-opacity="0.1"/>
<g clip-path="url(#clip0_0_614)">
<path d="M40 28C37.8 28 36 26.2 36 24C36 21.8 37.8 20 40 20C42.2 20 44 21.8 44 24C44 26.2 42.2 28 40 28ZM50 20H54V20.8C53.8 25.2 52.4 28.6 49.4 31C48.4 31.8 47.2 32.4 46 32.8V60H42V48H38V60H34V36.2C33.4 36.4 33 36.6 32.8 36.8C31 38.2 30.02 40 30 43V44H26V43C26 39 27.42 35.82 30.22 33.42C32.42 31.62 36 30 40 30C44 30 45.36 29.08 46.96 27.88C48.96 26.28 50 24 50 21V20ZM24 48H30V60H24V48Z" fill="#FF8345"/>
</g>
<defs>
<clipPath id="clip0_0_614">
<rect width="48" height="48" fill="white" transform="translate(16 16)"/>
</clipPath>
</defs>
</svg>
