<svg width="79" height="79" viewBox="0 0 79 79" fill="none" xmlns="http://www.w3.org/2000/svg">
<circle cx="39.5" cy="39.5" r="39.5" fill="#EDEDED"/>
<path d="M31.864 47.24C31 47.24 30.104 47.128 29.176 46.904C28.248 46.68 27.44 46.344 26.752 45.896C26.352 45.624 26.112 45.32 26.032 44.984C25.952 44.632 25.992 44.32 26.152 44.048C26.312 43.76 26.552 43.568 26.872 43.472C27.208 43.376 27.584 43.44 28 43.664C28.656 44.016 29.288 44.272 29.896 44.432C30.504 44.576 31.128 44.648 31.768 44.648C33.928 44.648 35.008 43.8 35.008 42.104C35.008 41.304 34.736 40.712 34.192 40.328C33.664 39.928 32.888 39.728 31.864 39.728H30.328C29.88 39.728 29.536 39.616 29.296 39.392C29.072 39.168 28.96 38.856 28.96 38.456C28.96 38.056 29.072 37.744 29.296 37.52C29.536 37.296 29.88 37.184 30.328 37.184H31.576C32.472 37.184 33.184 36.968 33.712 36.536C34.24 36.088 34.504 35.472 34.504 34.688C34.504 33.952 34.256 33.392 33.76 33.008C33.28 32.624 32.576 32.432 31.648 32.432C31.056 32.432 30.496 32.504 29.968 32.648C29.456 32.776 28.888 33.024 28.264 33.392C27.896 33.616 27.56 33.68 27.256 33.584C26.952 33.472 26.712 33.28 26.536 33.008C26.376 32.72 26.328 32.408 26.392 32.072C26.456 31.736 26.68 31.448 27.064 31.208C28.472 30.296 30.088 29.84 31.912 29.84C33.672 29.84 35.04 30.24 36.016 31.04C36.992 31.824 37.48 32.92 37.48 34.328C37.48 35.24 37.248 36.04 36.784 36.728C36.32 37.416 35.688 37.912 34.888 38.216C35.864 38.488 36.624 38.992 37.168 39.728C37.712 40.448 37.984 41.328 37.984 42.368C37.984 43.872 37.44 45.064 36.352 45.944C35.264 46.808 33.768 47.24 31.864 47.24ZM46.5906 46.232C45.8546 46.232 45.4866 45.856 45.4866 45.104V41.168H41.6226C40.9026 41.168 40.5426 40.816 40.5426 40.112C40.5426 39.408 40.9026 39.056 41.6226 39.056H45.4866V35.24C45.4866 34.504 45.8546 34.136 46.5906 34.136C47.3266 34.136 47.6946 34.504 47.6946 35.24V39.056H51.5586C52.2786 39.056 52.6386 39.408 52.6386 40.112C52.6386 40.816 52.2786 41.168 51.5586 41.168H47.6946V45.104C47.6946 45.856 47.3266 46.232 46.5906 46.232Z" fill="#1F6BFF"/>
</svg>
