<svg width="202" height="201" viewBox="0 0 202 201" fill="none" xmlns="http://www.w3.org/2000/svg">
<g filter="url(#filter0_d_0_673)">
<circle cx="101" cy="83.2715" r="64" fill="#FFCA45" fill-opacity="0.2" shape-rendering="crispEdges"/>
</g>
<path d="M82.25 78.3125C82.2506 77.7657 82.4681 77.2414 82.8548 76.8548C83.2414 76.4681 83.7657 76.2506 84.3125 76.25H92.1875C92.7343 76.2506 93.2586 76.4681 93.6452 76.8548C94.0319 77.2414 94.2494 77.7657 94.25 78.3125V82.25H95.75V78.3125C95.7489 77.368 95.3732 76.4625 94.7054 75.7946C94.0375 75.1268 93.132 74.7511 92.1875 74.75H92V70.4375C91.9995 69.9901 91.8215 69.5612 91.5052 69.2448C91.1888 68.9285 90.7599 68.7505 90.3125 68.75H86.1875C85.7401 68.7505 85.3112 68.9285 84.9948 69.2448C84.6785 69.5612 84.5005 69.9901 84.5 70.4375V74.75H84.3125C83.368 74.7511 82.4625 75.1268 81.7946 75.7946C81.1268 76.4625 80.7511 77.368 80.75 78.3125V83H82.25V78.3125ZM86 70.4375C86.0001 70.3878 86.0198 70.3401 86.055 70.305C86.0901 70.2698 86.1378 70.2501 86.1875 70.25H90.3125C90.3622 70.2501 90.4099 70.2698 90.445 70.305C90.4802 70.3401 90.4999 70.3878 90.5 70.4375V74.75H86V70.4375Z" fill="#FFCA45"/>
<path d="M92.75 83V80.1875C92.7495 79.7401 92.5715 79.3112 92.2552 78.9948C91.9388 78.6785 91.5099 78.5005 91.0625 78.5H85.4375C84.9901 78.5005 84.5612 78.6785 84.2448 78.9948C83.9285 79.3112 83.7505 79.7401 83.75 80.1875V83H85.25V80.1875C85.2501 80.1378 85.2698 80.0901 85.305 80.055C85.3401 80.0198 85.3878 80.0001 85.4375 80H91.0625C91.1122 80.0001 91.1599 80.0198 91.195 80.055C91.2302 80.0901 91.2499 80.1378 91.25 80.1875V83H92.75Z" fill="#FFCA45"/>
<path d="M83.75 98C83.305 98 82.87 98.132 82.5 98.3792C82.13 98.6264 81.8416 98.9778 81.6713 99.389C81.501 99.8001 81.4564 100.252 81.5432 100.689C81.6301 101.125 81.8443 101.526 82.159 101.841C82.4737 102.156 82.8746 102.37 83.311 102.457C83.7475 102.544 84.1999 102.499 84.611 102.329C85.0222 102.158 85.3736 101.87 85.6208 101.5C85.868 101.13 86 100.695 86 100.25C85.9993 99.6535 85.7621 99.0816 85.3402 98.6598C84.9184 98.2379 84.3465 98.0007 83.75 98ZM83.75 101C83.6017 101 83.4567 100.956 83.3333 100.874C83.21 100.791 83.1139 100.674 83.0571 100.537C83.0003 100.4 82.9855 100.249 83.0144 100.104C83.0434 99.9582 83.1148 99.8246 83.2197 99.7197C83.3246 99.6148 83.4582 99.5433 83.6037 99.5144C83.7492 99.4855 83.9 99.5003 84.037 99.5571C84.1741 99.6139 84.2912 99.71 84.3736 99.8333C84.456 99.9567 84.5 100.102 84.5 100.25C84.4998 100.449 84.4207 100.639 84.2801 100.78C84.1395 100.921 83.9488 101 83.75 101Z" fill="#FFCA45"/>
<path d="M95.0638 74.3027C95.106 74.3984 95.1677 74.4842 95.2451 74.5546C95.3224 74.625 95.4136 74.6784 95.5128 74.7115L97.7628 75.4615C97.903 75.5082 98.0539 75.5125 98.1965 75.4738C98.3391 75.435 98.4671 75.355 98.5644 75.2438L102.5 70.7461V72.2636L97.3856 79.5699C97.2973 79.6959 97.25 79.8461 97.25 80V82.25H98.75V80.2364L103.64 73.25H107.192L109.25 80.11V83H110.75V80C110.75 79.927 110.739 79.8544 110.718 79.7845L108.5 72.3899V69.5V69.4978C108.5 69.4929 108.5 69.488 108.5 69.4831L108.5 69.4795C108.5 69.4744 108.499 69.4693 108.499 69.4641L108.499 69.4574L108.498 69.4487C108.498 69.4428 108.497 69.437 108.497 69.4312L108.497 69.4296C108.486 69.3195 108.452 69.213 108.395 69.1179L105.401 63.8779C105.336 63.7631 105.241 63.6677 105.126 63.6013C105.012 63.535 104.882 63.5 104.75 63.5H95.75C95.5511 63.5 95.3603 63.579 95.2197 63.7197C95.079 63.8603 95 64.0511 95 64.25V66.5C95 66.6574 95.0495 66.8108 95.1416 66.9386C95.2336 67.0663 95.3635 67.1618 95.5128 67.2116L96.6112 67.5777L96.5536 67.7215C96.5139 67.8209 96.4959 67.9277 96.5008 68.0346C96.5057 68.1415 96.5335 68.2461 96.5822 68.3415C96.631 68.4368 96.6995 68.5205 96.7833 68.5871C96.8671 68.6537 96.9642 68.7016 97.0681 68.7276L97.2521 68.7736L95.0646 73.6955C95.0222 73.791 95.0002 73.8944 95 73.999C94.9999 74.1035 95.0216 74.207 95.0638 74.3027ZM104 71.75V70.25H107V71.75H104ZM99.2578 65H104.315L106.458 68.75H103.342L98.2655 67.4808L99.2578 65ZM96.5 65.9594V65H97.6423L97.1693 66.1825L96.5 65.9594ZM98.7295 69.1429L101.339 69.7953L97.764 73.8808L96.7709 73.5497L98.7295 69.1429Z" fill="#FFCA45"/>
<path d="M123.374 97.584L119.152 91.2515C118.998 91.0201 118.79 90.8304 118.545 90.6993C118.3 90.5682 118.026 90.4997 117.748 90.5H116.75V67.25H115.25V90.5H113.75V62.1875C113.75 62.1378 113.77 62.0901 113.805 62.055C113.84 62.0198 113.888 62.0001 113.938 62H115.062C115.112 62.0001 115.16 62.0198 115.195 62.055C115.23 62.0901 115.25 62.1378 115.25 62.1875V65.75H116.75V62.1875C116.749 61.7401 116.572 61.3112 116.255 60.9948C115.939 60.6785 115.51 60.5005 115.062 60.5H113.938C113.49 60.5005 113.061 60.6785 112.745 60.9948C112.428 61.3112 112.251 61.7401 112.25 62.1875V84.5H104C104 84.3011 103.921 84.1103 103.78 83.9697C103.64 83.829 103.449 83.75 103.25 83.75H90.5C90.3011 83.75 90.1103 83.829 89.9697 83.9697C89.829 84.1103 89.75 84.3011 89.75 84.5H79.25C79.0511 84.5 78.8603 84.579 78.7197 84.7197C78.579 84.8603 78.5 85.0511 78.5 85.25V86.375C78.5008 87.071 78.7776 87.7382 79.2697 88.2303C79.7618 88.7224 80.429 88.9992 81.125 89H81.5V92H83V89H89.75V98C89.75 98.1989 89.829 98.3897 89.9697 98.5303C90.1103 98.671 90.3011 98.75 90.5 98.75H99.5V97.25H91.25V95H102.5V97.25H101V98.75H103.25C103.449 98.75 103.64 98.671 103.78 98.5303C103.921 98.3897 104 98.1989 104 98V89H112.25V90.5H111.252C110.974 90.4997 110.7 90.5682 110.455 90.6993C110.21 90.8304 110.002 91.0201 109.848 91.2515L105.626 97.584C105.544 97.7072 105.5 97.8519 105.5 98V104H87.4207C88.2114 103.225 88.7371 102.221 88.9227 101.13C89.1082 100.038 88.944 98.9164 88.4537 97.9241C87.9634 96.9318 87.1719 96.1198 86.1924 95.6042C85.213 95.0887 84.0956 94.8959 83 95.0534V93.5H81.5V95.507C80.423 96.0178 79.552 96.8799 79.03 97.9515C78.5081 99.0232 78.3664 100.241 78.6282 101.403C78.8901 102.566 79.5398 103.605 80.4707 104.35C81.4015 105.094 82.558 105.5 83.75 105.5C83.8761 105.5 84.0011 105.496 84.125 105.487V105.5H122.75C122.949 105.5 123.14 105.421 123.28 105.28C123.421 105.14 123.5 104.949 123.5 104.75V98C123.5 97.8519 123.456 97.7072 123.374 97.584ZM102.5 85.25V90.5H91.25V85.25H102.5ZM81.125 87.5C80.8267 87.4997 80.5408 87.381 80.3299 87.1701C80.119 86.9592 80.0003 86.6733 80 86.375V86H89.75V87.5H81.125ZM91.25 93.5V92H102.5V93.5H91.25ZM104 87.5V86H112.25V87.5H104ZM80 100.25C80 99.5083 80.2199 98.7833 80.632 98.1666C81.044 97.5499 81.6297 97.0693 82.3149 96.7855C83.0002 96.5016 83.7542 96.4274 84.4816 96.5721C85.209 96.7168 85.8772 97.0739 86.4017 97.5984C86.9261 98.1228 87.2833 98.791 87.4279 99.5184C87.5726 100.246 87.4984 101 87.2145 101.685C86.9307 102.37 86.4501 102.956 85.8334 103.368C85.2167 103.78 84.4917 104 83.75 104C82.7558 103.999 81.8026 103.603 81.0996 102.9C80.3966 102.197 80.0011 101.244 80 100.25ZM111.096 92.0835C111.113 92.0578 111.136 92.0367 111.163 92.0221C111.19 92.0076 111.221 92 111.252 92H117.748C117.779 92 117.81 92.0076 117.837 92.0221C117.864 92.0367 117.887 92.0578 117.904 92.0835L121.849 98H107.151L111.096 92.0835ZM119 104V101H117.5V104H115.25V101H113.75V104H111.5V101H110V104H107V99.5H122V104H119Z" fill="#FFCA45"/>
<path d="M111.5 94.25H113V95.75H111.5V94.25Z" fill="#FFCA45"/>
<path d="M116 94.25H117.5V95.75H116V94.25Z" fill="#FFCA45"/>
<path d="M119.75 71H121.25V72.5H119.75V71Z" fill="#FFCA45"/>
<path d="M119.75 74H121.25V75.5H119.75V74Z" fill="#FFCA45"/>
<path d="M118.25 72.5H119.75V74H118.25V72.5Z" fill="#FFCA45"/>
<path d="M121.25 72.5H122.75V74H121.25V72.5Z" fill="#FFCA45"/>
<path d="M82.25 62.75H83.75V64.25H82.25V62.75Z" fill="#FFCA45"/>
<path d="M82.25 65.75H83.75V67.25H82.25V65.75Z" fill="#FFCA45"/>
<path d="M80.75 64.25H82.25V65.75H80.75V64.25Z" fill="#FFCA45"/>
<path d="M83.75 64.25H85.25V65.75H83.75V64.25Z" fill="#FFCA45"/>
<defs>
<filter id="filter0_d_0_673" x="0.876652" y="0.487343" width="200.247" height="200.247" filterUnits="userSpaceOnUse" color-interpolation-filters="sRGB">
<feFlood flood-opacity="0" result="BackgroundImageFix"/>
<feColorMatrix in="SourceAlpha" type="matrix" values="0 0 0 0 0 0 0 0 0 0 0 0 0 0 0 0 0 0 127 0" result="hardAlpha"/>
<feOffset dy="17.3392"/>
<feGaussianBlur stdDeviation="18.0617"/>
<feComposite in2="hardAlpha" operator="out"/>
<feColorMatrix type="matrix" values="0 0 0 0 0 0 0 0 0 0 0 0 0 0 0 0 0 0 0.05 0"/>
<feBlend mode="normal" in2="BackgroundImageFix" result="effect1_dropShadow_0_673"/>
<feBlend mode="normal" in="SourceGraphic" in2="effect1_dropShadow_0_673" result="shape"/>
</filter>
</defs>
</svg>
