<svg width="100" height="100" viewBox="0 0 100 100" fill="none" xmlns="http://www.w3.org/2000/svg">
<circle cx="50" cy="50" r="50" fill="#FCDC00"/>
<path d="M42.9961 33.75C41.4895 33.756 40.0464 34.3571 38.981 35.4224C37.9157 36.4878 37.3146 37.9309 37.3086 39.4375C37.3086 42.5608 39.8728 45.125 42.9961 45.125C46.1193 45.125 48.6836 42.5608 48.6836 39.4375C48.6836 36.3142 46.1193 33.75 42.9961 33.75ZM57.6211 33.75C56.1145 33.756 54.6714 34.3571 53.606 35.4224C52.5407 36.4878 51.9396 37.9309 51.9336 39.4375C51.9336 42.5608 54.4978 45.125 57.6211 45.125C60.7443 45.125 63.3086 42.5608 63.3086 39.4375C63.3086 36.3142 60.7443 33.75 57.6211 33.75ZM42.9961 37C44.3611 37 45.4336 38.0725 45.4336 39.4375C45.4336 40.8025 44.3611 41.875 42.9961 41.875C41.6311 41.875 40.5586 40.8025 40.5586 39.4375C40.5586 38.0725 41.6311 37 42.9961 37ZM57.6211 37C58.9861 37 60.0586 38.0725 60.0586 39.4375C60.0586 40.8025 58.9861 41.875 57.6211 41.875C56.2561 41.875 55.1836 40.8025 55.1836 39.4375C55.1836 38.0725 56.2561 37 57.6211 37ZM35.6836 43.5C32.1086 43.5 29.1836 46.425 29.1836 50C29.1836 51.8086 29.9587 53.4401 31.1645 54.6215C30.0584 55.3679 29.1516 56.3735 28.5231 57.5506C27.8946 58.7277 27.5635 60.0406 27.5586 61.375H30.8086C30.8086 58.6645 32.9731 56.5 35.6836 56.5C38.3941 56.5 40.5586 58.6645 40.5586 61.375H43.8086C43.8037 60.0406 43.4726 58.7277 42.8441 57.5506C42.2156 56.3735 41.3088 55.3679 40.2027 54.6215C41.4085 53.4401 42.1836 51.8102 42.1836 50C42.1836 46.425 39.2586 43.5 35.6836 43.5ZM43.8086 61.375C42.793 62.7335 42.1836 64.4414 42.1836 66.25H45.4336C45.4336 63.5395 47.5981 61.375 50.3086 61.375C53.0191 61.375 55.1836 63.5395 55.1836 66.25H58.4336C58.4308 64.4924 57.8609 62.7827 56.8086 61.375C56.2561 60.6389 55.5898 60.01 54.8277 59.4965C56.0335 58.3151 56.8086 56.6852 56.8086 54.875C56.8086 51.3 53.8836 48.375 50.3086 48.375C46.7336 48.375 43.8086 51.3 43.8086 54.875C43.8086 56.6836 44.5837 58.3151 45.7895 59.4965C45.0288 60.0075 44.3592 60.6425 43.8086 61.375ZM56.8086 61.375H60.0586C60.0586 58.6645 62.2231 56.5 64.9336 56.5C67.6441 56.5 69.8086 58.6645 69.8086 61.375H73.0586C73.0537 60.0406 72.7226 58.7277 72.0941 57.5506C71.4656 56.3735 70.5588 55.3679 69.4527 54.6215C70.6585 53.4401 71.4336 51.8102 71.4336 50C71.4336 46.425 68.5086 43.5 64.9336 43.5C61.3586 43.5 58.4336 46.425 58.4336 50C58.4336 51.8086 59.2087 53.4401 60.4145 54.6215C59.3084 55.3679 58.4016 56.3735 57.7731 57.5506C57.1446 58.7277 56.8135 60.0406 56.8086 61.375ZM35.6836 46.75C37.4987 46.75 38.9336 48.1849 38.9336 50C38.9336 51.8151 37.4987 53.25 35.6836 53.25C33.8685 53.25 32.4336 51.8151 32.4336 50C32.4336 48.1849 33.8685 46.75 35.6836 46.75ZM64.9336 46.75C66.7487 46.75 68.1836 48.1849 68.1836 50C68.1836 51.8151 66.7487 53.25 64.9336 53.25C63.1185 53.25 61.6836 51.8151 61.6836 50C61.6836 48.1849 63.1185 46.75 64.9336 46.75ZM50.3086 51.625C52.1237 51.625 53.5586 53.0599 53.5586 54.875C53.5586 56.6901 52.1237 58.125 50.3086 58.125C48.4935 58.125 47.0586 56.6901 47.0586 54.875C47.0586 53.0599 48.4935 51.625 50.3086 51.625Z" fill="white"/>
</svg>
